<svg width="16" height="16" viewBox="0 0 16 16" fill="none" xmlns="http://www.w3.org/2000/svg">
<g clip-path="url(#clip0_696_52266)">
<path fill-rule="evenodd" clip-rule="evenodd" d="M7.9974 2.66536C7.261 2.66536 6.66406 3.26232 6.66406 3.9987H9.33073C9.33073 3.26232 8.7338 2.66536 7.9974 2.66536ZM6.23352 1.9987C6.7036 1.58379 7.32113 1.33203 7.9974 1.33203C8.67366 1.33203 9.2912 1.58379 9.76126 1.9987H11.9974C12.7338 1.9987 13.3307 2.59565 13.3307 3.33203V13.332C13.3307 14.0684 12.7338 14.6654 11.9974 14.6654H3.9974C3.26102 14.6654 2.66406 14.0684 2.66406 13.332V3.33203C2.66406 2.59565 3.26102 1.9987 3.9974 1.9987H6.23352ZM5.41474 3.33203H3.9974V13.332H11.9974V3.33203H10.5801C10.6349 3.54511 10.6641 3.7685 10.6641 3.9987V4.66536C10.6641 5.03355 10.3656 5.33203 9.9974 5.33203H5.9974C5.62921 5.33203 5.33073 5.03355 5.33073 4.66536V3.9987C5.33073 3.7685 5.3599 3.54511 5.41474 3.33203ZM5.33073 7.33203C5.33073 6.96383 5.62921 6.66536 5.9974 6.66536H9.9974C10.3656 6.66536 10.6641 6.96383 10.6641 7.33203C10.6641 7.70023 10.3656 7.9987 9.9974 7.9987H5.9974C5.62921 7.9987 5.33073 7.70023 5.33073 7.33203ZM5.33073 9.9987C5.33073 9.6305 5.62921 9.33203 5.9974 9.33203H7.9974C8.3656 9.33203 8.66406 9.6305 8.66406 9.9987C8.66406 10.3669 8.3656 10.6654 7.9974 10.6654H5.9974C5.62921 10.6654 5.33073 10.3669 5.33073 9.9987Z" fill="#F9C74F"/>
</g>
<defs>
<clipPath id="clip0_696_52266">
<rect width="16" height="16" fill="white"/>
</clipPath>
</defs>
</svg>
